<?xml version="1.0" encoding="UTF-8" standalone="no" ?>
<!DOCTYPE svg PUBLIC "-//W3C//DTD SVG 1.1//EN" "http://www.w3.org/Graphics/SVG/1.1/DTD/svg11.dtd">
<svg xmlns="http://www.w3.org/2000/svg" xmlns:xlink="http://www.w3.org/1999/xlink" version="1.1" width="132.75399597167967" height="130.9792" xml:space="preserve">
<desc>Created with Fabric.js 1.6.0-rc.1</desc>
<defs></defs>
<g style="stroke: none; stroke-width: 1; stroke-dasharray: none; stroke-linecap: butt; stroke-linejoin: miter; stroke-miterlimit: 10; fill: none; fill-rule: nonzero; opacity: 1;" transform="translate(10 10) scale(0.64 0.64)" >
  <polygon points="87.27,6.27 100.57,1.76 101.81,41.1 86.93,34.34 " style="stroke: none; stroke-width: 1; stroke-dasharray: none; stroke-linecap: butt; stroke-linejoin: miter; stroke-miterlimit: 10; fill: #C4A369; fill-rule: nonzero; opacity: 1;" transform="  matrix(1 0 0 1 0 0) "/>
  <polygon points="117.41,60.41 100.06,60.41 100.06,0 117.41,10.82 " style="stroke: none; stroke-width: 1; stroke-dasharray: none; stroke-linecap: butt; stroke-linejoin: miter; stroke-miterlimit: 10; fill: #191917; fill-rule: nonzero; opacity: 1;" transform="  matrix(1 0 0 1 0 0) "/>
  <polygon points="100.06,0 85.16,5.21 85.16,42.18 88.15,43.99 88.15,6.33 100.49,2.39 " style="stroke: none; stroke-width: 1; stroke-dasharray: none; stroke-linecap: butt; stroke-linejoin: miter; stroke-miterlimit: 10; fill: #191917; fill-rule: nonzero; opacity: 1;" transform="  matrix(1 0 0 1 0 0) "/>
  <polygon points="148.45,58.66 78.31,28.64 78.31,122.22 148.45,122.22 " style="stroke: none; stroke-width: 1; stroke-dasharray: none; stroke-linecap: butt; stroke-linejoin: miter; stroke-miterlimit: 10; fill: #191917; fill-rule: nonzero; opacity: 1;" transform="  matrix(1 0 0 1 0 0) "/>
  <polygon points="0,62.38 0,122.22 78.81,122.22 78.81,28.64 " style="stroke: none; stroke-width: 1; stroke-dasharray: none; stroke-linecap: butt; stroke-linejoin: miter; stroke-miterlimit: 10; fill: #191917; fill-rule: nonzero; opacity: 1;" transform="  matrix(1 0 0 1 0 0) "/>
  <path d="M 4.69 65.469 c 0 5.106 0 44.542 0 52.063 c 7.771 0 61.653 0 69.424 0 c 0 -7.787 0 -70.298 0 -81.781 C 63.553 40.273 9.521 63.402 4.69 65.469 z" style="stroke: none; stroke-width: 1; stroke-dasharray: none; stroke-linecap: butt; stroke-linejoin: miter; stroke-miterlimit: 10; fill: #C4A369; fill-rule: nonzero; opacity: 1;" transform=" matrix(1 0 0 1 0 0) " stroke-linecap="round" />
  <path d="M 122.653 61.227 v 17.269 l 15.009 3.766 V 66.481 L 122.653 61.227 z M 92.166 70.846 L 109.52 75.2 V 56.631 l -17.354 -6.074 V 70.846 z M 122.653 108.802 l 15.009 1.156 V 96.431 L 122.653 94 V 108.802 z M 92.166 106.455 l 17.354 1.337 V 91.875 l -17.354 -2.81 V 106.455 z" style="stroke: none; stroke-width: 1; stroke-dasharray: none; stroke-linecap: butt; stroke-linejoin: miter; stroke-miterlimit: 10; fill: #F2C300; fill-rule: nonzero; opacity: 1;" transform=" matrix(1 0 0 1 0 0) " stroke-linecap="round" />
  <path d="M 32.121 61.227 v 17.269 l -15.009 3.766 V 66.481 L 32.121 61.227 z M 62.608 70.846 L 45.254 75.2 V 56.631 l 17.354 -6.074 V 70.846 z M 32.121 108.802 l -15.009 1.156 V 96.431 L 32.121 94 V 108.802 z M 62.608 106.455 l -17.354 1.337 V 91.875 l 17.354 -2.81 V 106.455 z" style="stroke: none; stroke-width: 1; stroke-dasharray: none; stroke-linecap: butt; stroke-linejoin: miter; stroke-miterlimit: 10; fill: #191917; fill-rule: nonzero; opacity: 1;" transform=" matrix(1 0 0 1 0 0) " stroke-linecap="round" />
</g>
  <g transform="translate(53.25 104.75) scale(0.57 0.57)">
   <text font-family="Diogenes" font-size="40" font-weight="normal" style="stroke: none; stroke-width: 1; stroke-dasharray: none; stroke-linecap: butt; stroke-linejoin: miter; stroke-miterlimit: 10; fill: #000305; fill-rule: nonzero; opacity: 1;" ><tspan x="-75.38" y="8.98" style="stroke: none; stroke-width: 0; stroke-dasharray: none; stroke-linecap: butt; stroke-linejoin: miter; stroke-miterlimit: 4; fill: #000305; fill-rule: ; opacity: 1;">P</tspan><tspan x="-57.78" y="8.98" style="stroke: none; stroke-width: 0; stroke-dasharray: none; stroke-linecap: butt; stroke-linejoin: miter; stroke-miterlimit: 4; fill: #000305; fill-rule: ; opacity: 1;">r</tspan><tspan x="-43.9" y="8.98" style="stroke: none; stroke-width: 0; stroke-dasharray: none; stroke-linecap: butt; stroke-linejoin: miter; stroke-miterlimit: 4; fill: #000305; fill-rule: ; opacity: 1;">o</tspan><tspan x="-22.98" y="8.98" style="stroke: none; stroke-width: 0; stroke-dasharray: none; stroke-linecap: butt; stroke-linejoin: miter; stroke-miterlimit: 4; fill: #000305; fill-rule: ; opacity: 1;">d</tspan><tspan x="-5.26" y="8.98" style="stroke: none; stroke-width: 0; stroke-dasharray: none; stroke-linecap: butt; stroke-linejoin: miter; stroke-miterlimit: 4; fill: #000305; fill-rule: ; opacity: 1;">E</tspan><tspan x="16.94" y="8.98" style="stroke: none; stroke-width: 0; stroke-dasharray: none; stroke-linecap: butt; stroke-linejoin: miter; stroke-miterlimit: 4; fill: #000305; fill-rule: ; opacity: 1;">l</tspan><tspan x="23.1" y="8.98" style="stroke: none; stroke-width: 0; stroke-dasharray: none; stroke-linecap: butt; stroke-linejoin: miter; stroke-miterlimit: 4; fill: #000305; fill-rule: ; opacity: 1;">e</tspan><tspan x="41.1" y="8.98" style="stroke: none; stroke-width: 0; stroke-dasharray: none; stroke-linecap: butt; stroke-linejoin: miter; stroke-miterlimit: 4; fill: #000305; fill-rule: ; opacity: 1;">c</tspan><tspan x="57.86" y="8.98" style="stroke: none; stroke-width: 0; stroke-dasharray: none; stroke-linecap: butt; stroke-linejoin: miter; stroke-miterlimit: 4; fill: #000305; fill-rule: ; opacity: 1;">t</tspan></text>
 </g>
  <g transform="translate(109.24 105.55) scale(0.6 0.6)">
   <text font-family="Diogenes" font-size="40" font-weight="normal" style="stroke: none; stroke-width: 1; stroke-dasharray: none; stroke-linecap: butt; stroke-linejoin: miter; stroke-miterlimit: 10; fill: #d6cd22; fill-rule: nonzero; opacity: 1;" ><tspan x="-23.02" y="8.98" style="stroke: none; stroke-width: 0; stroke-dasharray: none; stroke-linecap: butt; stroke-linejoin: miter; stroke-miterlimit: 4; fill: #d6cd22; fill-rule: ; opacity: 1;">3</tspan><tspan x="-3.74" y="8.98" style="stroke: none; stroke-width: 0; stroke-dasharray: none; stroke-linecap: butt; stroke-linejoin: miter; stroke-miterlimit: 4; fill: #d6cd22; fill-rule: ; opacity: 1;">D</tspan></text>
 </g>
</svg>
